<?xml version="1.0" encoding="UTF-8" standalone="no"?>
<!-- Created with Inkscape (http://www.inkscape.org/) -->

<svg
   xmlns:dc="http://purl.org/dc/elements/1.1/"
   xmlns:cc="http://creativecommons.org/ns#"
   xmlns:rdf="http://www.w3.org/1999/02/22-rdf-syntax-ns#"
   xmlns:svg="http://www.w3.org/2000/svg"
   xmlns="http://www.w3.org/2000/svg"
   xmlns:sodipodi="http://sodipodi.sourceforge.net/DTD/sodipodi-0.dtd"
   xmlns:inkscape="http://www.inkscape.org/namespaces/inkscape"
   width="512"
   height="512"
   viewBox="0 0 135.46666 135.46667"
   version="1.1"
   id="svg8"
   inkscape:version="0.92.3 (2405546, 2018-03-11)"
   sodipodi:docname="icon.svg">
  <defs
     id="defs2" />
  <sodipodi:namedview
     id="base"
     pagecolor="#ffffff"
     bordercolor="#666666"
     borderopacity="1.0"
     inkscape:pageopacity="0.0"
     inkscape:pageshadow="2"
     inkscape:zoom="0.7"
     inkscape:cx="-7.7217586"
     inkscape:cy="356.688"
     inkscape:document-units="mm"
     inkscape:current-layer="layer1"
     showgrid="false"
     units="px"
     inkscape:pagecheckerboard="true"
     inkscape:window-width="1920"
     inkscape:window-height="991"
     inkscape:window-x="-9"
     inkscape:window-y="-9"
     inkscape:window-maximized="1" />
  <metadata
     id="metadata5">
    <rdf:RDF>
      <cc:Work
         rdf:about="">
        <dc:format>image/svg+xml</dc:format>
        <dc:type
           rdf:resource="http://purl.org/dc/dcmitype/StillImage" />
        <dc:title />
      </cc:Work>
    </rdf:RDF>
  </metadata>
  <g
     inkscape:label="Layer 1"
     inkscape:groupmode="layer"
     id="layer1"
     transform="translate(0,-161.53332)">
    <rect
       style="opacity:1;fill:#333333;fill-opacity:1;stroke:none;stroke-width:0;stroke-linecap:round;stroke-linejoin:round;stroke-miterlimit:4;stroke-dasharray:none;stroke-dashoffset:0;stroke-opacity:1"
       id="rect815"
       width="135.77292"
       height="135.7729"
       x="0"
       y="161.49434"
       rx="27.592262"
       ry="27.592262" />
    <g
       aria-label="$5   /hr"
       style="font-style:normal;font-variant:normal;font-weight:normal;font-stretch:normal;font-size:27.71212006px;line-height:1.25;font-family:'Arial Rounded MT Bold';-inkscape-font-specification:'Arial Rounded MT Bold, ';letter-spacing:0px;word-spacing:0px;fill:#ffffff;fill-opacity:1;stroke:none;stroke-width:0.37114444"
       id="text819">
      <rect
         style="opacity:1;fill:#999999;fill-opacity:1;stroke:none;stroke-width:0;stroke-linecap:round;stroke-linejoin:round;stroke-miterlimit:4;stroke-dasharray:none;stroke-dashoffset:0;stroke-opacity:1"
         id="rect826"
         width="58.208332"
         height="58.208332"
         x="5.2916727"
         y="168.11011"
         rx="27.592339"
         ry="27.592339" />
      <path
         d="m 34.968456,178.64904 v 2.17477 q 2.154628,0.2215 3.68502,0.88602 1.550526,0.6645 2.698319,2.01367 0.906153,1.02698 1.389433,2.11436 0.503419,1.08738 0.503419,1.99353 0,1.00683 -0.74506,1.75189 -0.724921,0.72493 -1.772031,0.72493 -1.973398,0 -2.557362,-2.1345 -0.664512,-2.5171 -3.201738,-3.3427 v 8.37689 q 2.496952,0.68464 3.966933,1.24847 1.490118,0.56382 2.658047,1.63107 1.248477,1.10751 1.912988,2.65804 0.684648,1.53039 0.684648,3.36283 0,2.29559 -1.087382,4.30926 -1.067247,1.99354 -3.161466,3.26216 -2.094218,1.26861 -4.973768,1.51024 v 5.01405 q 0,1.18807 -0.241641,1.73175 -0.221504,0.5437 -1.006835,0.5437 -0.724922,0 -1.026973,-0.44301 -0.281914,-0.44301 -0.281914,-1.36929 v -5.43691 q -2.355996,-0.26179 -4.128027,-1.10753 -1.751894,-0.84574 -2.93996,-2.09421 -1.16793,-1.26861 -1.731758,-2.61778 -0.563829,-1.3693 -0.563829,-2.67819 0,-0.96656 0.745059,-1.73175 0.765196,-0.78533 1.892852,-0.78533 0.906152,0 1.53039,0.42287 0.624238,0.42288 0.865879,1.18807 0.543691,1.6512 0.946425,2.53722 0.402734,0.86588 1.208204,1.5908 0.825605,0.72492 2.174765,1.10753 v -9.36358 q -2.698319,-0.74506 -4.510624,-1.65121 -1.812305,-0.92629 -2.939961,-2.61778 -1.127657,-1.69148 -1.127657,-4.34952 0,-3.46353 2.194903,-5.67856 2.215038,-2.21505 6.383339,-2.5775 v -2.1345 q 0,-1.69148 1.268613,-1.69148 1.28875,0 1.28875,1.65121 z m -2.557363,13.8138 v -7.71236 q -1.691484,0.50341 -2.637911,1.32901 -0.946425,0.82561 -0.946425,2.49695 0,1.59081 0.886017,2.41641 0.886014,0.80546 2.698319,1.46999 z m 2.557363,5.9806 v 8.81988 q 2.033808,-0.40274 3.141327,-1.63108 1.10752,-1.22834 1.10752,-2.85941 0,-1.7519 -1.087382,-2.69832 -1.067247,-0.96656 -3.161465,-1.63107 z"
         style="font-style:normal;font-variant:normal;font-weight:normal;font-stretch:normal;font-size:27.71212006px;font-family:'Arial Rounded MT Bold';-inkscape-font-specification:'Arial Rounded MT Bold, ';fill:#ffffff;stroke-width:0.55232131"
         id="path831"
         inkscape:connector-curvature="0" />
      <path
         d="m 68.434071,230.99838 -9.742542,40.1184 q -0.487127,1.9833 -0.869869,3.13153 -0.347948,1.14823 -1.113434,1.77453 -0.73069,0.66111 -2.157277,0.66111 -3.549069,0 -3.549069,-3.06195 0,-0.80028 0.695896,-4.0014 l 9.707747,-40.11839 q 0.765486,-3.20112 1.461381,-4.38415 0.695896,-1.18302 2.713994,-1.18302 1.73974,0 2.644405,0.83508 0.939459,0.83507 0.939459,2.29645 0,1.07864 -0.730691,3.93181 z"
         style="font-size:71.25973511px;fill:#ffffff;stroke-width:0.37114444"
         id="path835" />
      <path
         d="m 79.765577,244.43835 v 9.59032 q 1.231349,-1.42079 2.391659,-2.24958 1.183989,-0.82879 2.604777,-1.23135 1.420787,-0.42624 3.054693,-0.42624 2.462698,0 4.357082,1.04191 1.918063,1.04191 3.007333,3.03102 0.686714,1.16031 0.923512,2.60477 0.236798,1.42079 0.236798,3.29149 v 12.38454 q 0,1.94174 -0.899832,2.93629 -0.876153,0.99455 -2.3443,0.99455 -3.196771,0 -3.196771,-3.93084 v -10.91639 q 0,-3.10205 -0.923512,-4.75964 -0.923512,-1.68126 -3.504609,-1.68126 -1.728625,0 -3.125733,0.99455 -1.373428,0.97087 -2.060142,2.67582 -0.520955,1.44446 -0.520955,5.13851 v 8.54841 q 0,1.91806 -0.876152,2.93629 -0.852473,0.99455 -2.391659,0.99455 -3.196772,0 -3.196772,-3.93084 v -28.03688 q 0,-1.96542 0.828793,-2.93629 0.852472,-0.99455 2.367979,-0.99455 1.539186,0 2.391659,0.99455 0.876152,0.99455 0.876152,2.93629 z"
         style="font-size:48.49621201px;fill:#ffffff;stroke-width:0.37114444"
         id="path837" />
      <path
         d="m 109.12852,267.07623 v 5.399 q 0,1.96542 -0.92352,2.95997 -0.92351,0.97087 -2.3443,0.97087 -1.3971,0 -2.29694,-0.99455 -0.89983,-0.99455 -0.89983,-2.93629 v -17.99665 q 0,-4.35708 3.14941,-4.35708 1.61023,0 2.32062,1.01823 0.7104,1.01823 0.78144,3.00734 1.16031,-1.98911 2.36798,-3.00734 1.23135,-1.01823 3.26781,-1.01823 2.03646,0 3.95452,1.01823 1.91807,1.01823 1.91807,2.6995 0,1.18399 -0.8288,1.96542 -0.80511,0.75776 -1.7523,0.75776 -0.3552,0 -1.72863,-0.42624 -1.34974,-0.44992 -2.39166,-0.44992 -1.42078,0 -2.32061,0.75776 -0.89984,0.73407 -1.39711,2.20222 -0.49728,1.46814 -0.68672,3.50461 -0.18943,2.01278 -0.18943,4.92539 z"
         style="font-size:48.49621201px;fill:#ffffff;stroke-width:0.37114444"
         id="path839" />
    </g>
  </g>
</svg>
